<?xml version="1.0" encoding="UTF-8"?>
<svg width="25px" height="25px" viewBox="0 0 25 25" version="1.1" xmlns="http://www.w3.org/2000/svg" xmlns:xlink="http://www.w3.org/1999/xlink">
    <title>calendar-2</title>
    <g id="Landing-Page" stroke="none" stroke-width="1" fill="none" fill-rule="evenodd">
        <g transform="translate(-849.000000, -2354.000000)" fill="#FFFFFF" fill-rule="nonzero" id="Content-2">
            <g transform="translate(-10.000000, 2117.000000)">
                <g id="CONTENT" transform="translate(842.000000, 34.000000)">
                    <g id="1" transform="translate(2.000000, 182.000000)">
                        <g id="calendar-2" transform="translate(15.000000, 21.000000)">
                            <circle id="Oval" cx="18.8476562" cy="10.2539062" r="1"></circle>
                            <path d="M21.09375,1.953125 L19.8242188,1.953125 L19.8242188,0.9765625 C19.8242188,0.437207031 19.3870117,0 18.8476562,0 C18.3083008,0 17.8710938,0.437207031 17.8710938,0.9765625 L17.8710938,1.953125 L13.4277344,1.953125 L13.4277344,0.9765625 C13.4277344,0.437207031 12.9905273,0 12.4511719,0 C11.9118164,0 11.4746094,0.437207031 11.4746094,0.9765625 L11.4746094,1.953125 L7.08007812,1.953125 L7.08007812,0.9765625 C7.08007812,0.437207031 6.64287109,0 6.10351562,0 C5.56416016,0 5.12695312,0.437207031 5.12695312,0.9765625 L5.12695312,1.953125 L3.90625,1.953125 C1.75234375,1.953125 0,3.70546875 0,5.859375 L0,21.09375 C0,23.2476563 1.75234375,25 3.90625,25 L11.3769531,25 C11.9163086,25 12.3535156,24.562793 12.3535156,24.0234375 C12.3535156,23.484082 11.9163086,23.046875 11.3769531,23.046875 L3.90625,23.046875 C2.82929688,23.046875 1.953125,22.1707031 1.953125,21.09375 L1.953125,5.859375 C1.953125,4.78242187 2.82929688,3.90625 3.90625,3.90625 L5.12695312,3.90625 L5.12695312,4.8828125 C5.12695312,5.42216797 5.56416016,5.859375 6.10351562,5.859375 C6.64287109,5.859375 7.08007812,5.42216797 7.08007812,4.8828125 L7.08007812,3.90625 L11.4746094,3.90625 L11.4746094,4.8828125 C11.4746094,5.42216797 11.9118164,5.859375 12.4511719,5.859375 C12.9905273,5.859375 13.4277344,5.42216797 13.4277344,4.8828125 L13.4277344,3.90625 L17.8710938,3.90625 L17.8710938,4.8828125 C17.8710938,5.42216797 18.3083008,5.859375 18.8476562,5.859375 C19.3870117,5.859375 19.8242188,5.42216797 19.8242188,4.8828125 L19.8242188,3.90625 L21.09375,3.90625 C22.1707031,3.90625 23.046875,4.78242187 23.046875,5.859375 L23.046875,11.4257812 C23.046875,11.9651367 23.484082,12.4023438 24.0234375,12.4023438 C24.562793,12.4023438 25,11.9651367 25,11.4257812 L25,5.859375 C25,3.70546875 23.2476563,1.953125 21.09375,1.953125 Z" id="Path"></path>
                            <path d="M19.0917969,13.1835938 C15.8339844,13.1835938 13.1835938,15.8339844 13.1835938,19.0917969 C13.1835938,22.3496094 15.8339844,25 19.0917969,25 C22.3496094,25 25,22.3496094 25,19.0917969 C25,15.8339844 22.3496094,13.1835938 19.0917969,13.1835938 Z M19.0917969,23.046875 C16.9109863,23.046875 15.1367188,21.2726562 15.1367188,19.0917969 C15.1367188,16.9109375 16.9109863,15.1367188 19.0917969,15.1367188 C21.2726074,15.1367188 23.046875,16.9109375 23.046875,19.0917969 C23.046875,21.2726562 21.2726074,23.046875 19.0917969,23.046875 Z" id="Shape"></path>
                            <path d="M20.5078125,18.1152344 L20.0683594,18.1152344 L20.0683594,17.0898438 C20.0683594,16.5504883 19.6311523,16.1132812 19.0917969,16.1132812 C18.5524414,16.1132812 18.1152344,16.5504883 18.1152344,17.0898438 L18.1152344,19.0917969 C18.1152344,19.6311523 18.5524414,20.0683594 19.0917969,20.0683594 L20.5078125,20.0683594 C21.047168,20.0683594 21.484375,19.6311523 21.484375,19.0917969 C21.484375,18.5524414 21.047168,18.1152344 20.5078125,18.1152344 Z" id="Path"></path>
                            <circle id="Oval" cx="14.5996094" cy="10.2539062" r="1"></circle>
                            <circle id="Oval" cx="10.3515625" cy="14.5019531" r="1"></circle>
                            <circle id="Oval" cx="6.10351562" cy="10.2539062" r="1"></circle>
                            <circle id="Oval" cx="6.10351562" cy="14.5019531" r="1"></circle>
                            <circle id="Oval" cx="6.10351562" cy="18.75" r="1"></circle>
                            <circle id="Oval" cx="10.3515625" cy="18.75" r="1"></circle>
                            <circle id="Oval" cx="10.3515625" cy="10.2539062" r="1"></circle>
                        </g>
                    </g>
                </g>
            </g>
        </g>
    </g>
</svg>