<?xml version="1.0" encoding="UTF-8"?>
<svg width="30px" height="20px" viewBox="0 0 30 20" version="1.1" xmlns="http://www.w3.org/2000/svg" xmlns:xlink="http://www.w3.org/1999/xlink">
    <title>gym</title>
    <g id="Landing-Page" stroke="none" stroke-width="1" fill="none" fill-rule="evenodd">
        <g transform="translate(-846.000000, -2511.000000)" fill="#FFFFFF" fill-rule="nonzero" id="Content-2">
            <g transform="translate(-10.000000, 2117.000000)">
                <g id="CONTENT" transform="translate(842.000000, 34.000000)">
                    <g id="1-copy" transform="translate(2.000000, 336.000000)">
                        <g id="gym" transform="translate(12.000000, 24.000000)">
                            <path d="M27.5225342,2.40545392 L26.941869,2.40545392 C26.7073764,2.40545392 26.4806767,2.43891101 26.2655786,2.50008301 C26.046379,1.35662374 25.0392091,0.489786113 23.83282,0.489786113 L23.2522134,0.489786113 C21.8860974,0.489786113 20.7746304,1.60125313 20.7746304,2.96731048 L20.7746304,6.96622454 L9.22536958,6.96622454 L9.22536958,2.47752437 C9.22536958,1.11140842 8.11390257,1.66533779e-15 6.74784521,1.66533779e-15 L6.16723861,1.66533779e-15 C4.96084953,1.66533779e-15 3.9536796,0.866837631 3.73453854,2.0102969 C3.51938187,1.9491249 3.29268221,1.9156678 3.05818957,1.9156678 L2.47758296,1.9156678 C1.11146701,1.9156678 0,3.02701763 0,4.39319217 L0,14.6939935 C0,16.0601095 1.11146701,17.1715179 2.47752437,17.1715179 L3.05813097,17.1715179 C3.29262362,17.1715179 3.51932328,17.1380608 3.73447995,17.0768888 C3.9536796,18.2203481 4.96084953,19.0871857 6.16718001,19.0871857 L6.74778662,19.0871857 C8.11390257,19.0871857 9.22531099,17.9757187 9.22531099,16.6096613 L9.22531099,13.0118809 L20.7745718,13.0118809 L20.7745718,17.0995061 C20.7745718,18.465622 21.8860388,19.5770304 23.2521548,19.5770304 L23.8327614,19.5770304 C25.0391505,19.5770304 26.046379,18.7101342 26.26552,17.5667335 C26.4806181,17.6279055 26.7073764,17.6613626 26.9418104,17.6613626 L27.5224756,17.6613626 C28.888533,17.6613626 30,16.5498956 30,15.1838382 L30,4.88297829 C30,3.51686234 28.8885916,2.40545392 27.5225342,2.40545392 Z M3.68971424,14.6939935 C3.68971424,15.0422755 3.4064129,15.3256354 3.05813097,15.3256354 L2.47752437,15.3256354 C2.12924244,15.3256354 1.84594111,15.0422755 1.84594111,14.6939935 L1.84594111,4.39319217 C1.84594111,4.04491024 2.12924244,3.76160891 2.47752437,3.76160891 L3.05813097,3.76160891 C3.4064129,3.76160891 3.68971424,4.04491024 3.68971424,4.39319217 L3.68971424,14.6939935 L3.68971424,14.6939935 Z M7.37942848,16.6097199 C7.37942848,16.9580019 7.09612714,17.2413032 6.74784521,17.2413032 L6.16723861,17.2413032 C5.81895668,17.2413032 5.53565534,16.9580019 5.53565534,16.6097199 L5.53565534,2.47740718 C5.53565534,2.12912525 5.81901527,1.84582392 6.16723861,1.84582392 L6.74784521,1.84582392 C7.09612714,1.84582392 7.37942848,2.12912525 7.37942848,2.47740718 L7.37942848,16.6097199 Z M20.774689,11.1659984 L9.22536958,11.1659984 L9.22536958,8.81210705 L20.774689,8.81210705 L20.774689,11.1659984 L20.774689,11.1659984 Z M24.4644033,17.0995646 C24.4644033,17.4478466 24.1811019,17.7311479 23.8327614,17.7311479 L23.2521548,17.7311479 C22.9038729,17.7311479 22.6205129,17.4478466 22.6205129,17.0995646 L22.6205129,2.96725189 C22.6205129,2.61896996 22.9038143,2.33566862 23.2521548,2.33566862 L23.8327614,2.33566862 C24.1810433,2.33566862 24.4644033,2.61896996 24.4644033,2.96725189 L24.4644033,17.0995646 Z M28.1541175,15.1837797 C28.1541175,15.5320616 27.8708162,15.8153629 27.5225342,15.8153629 L26.941869,15.8153629 C26.5936457,15.8153629 26.3102858,15.5320616 26.3102858,15.1837797 L26.3102858,4.88297829 C26.3102858,4.53469636 26.5935871,4.25139502 26.941869,4.25139502 L27.5225342,4.25139502 C27.8707576,4.25139502 28.1541175,4.53469636 28.1541175,4.88297829 L28.1541175,15.1837797 Z" id="Shape"></path>
                        </g>
                    </g>
                </g>
            </g>
        </g>
    </g>
</svg>